# xmcd
#
# Track frame offsets: 
#        150
#        15112
#        31960
#        51541
#        67797
#        83262
#        99118
#        118577
#        139861
#        163880
#        182826
#        204900
#
# Disc length: 2987 seconds
#
# Revision: 0
# Processed by: cddbd v1.5.2PL0 Copyright (c) Steve Scherf et al.
# Submitted via: ExactAudioCopy v0.95a5
#
DISCID=8c0ba90c
DTITLE=ESB reNEWed - Gehalten
DYEAR=2007
DGENRE=Pop
TTITLE0=Lob und Preis sei Gott
TTITLE1=Gehalten
TTITLE2=That's why I sing
TTITLE3=Fill me with your presence
TTITLE4=I love to praise him
TTITLE5=Sing a new Song
TTITLE6=We will bless him
TTITLE7=He haw taken my sins
TTITLE8=In the sanctuary
TTITLE9=Jesus, nun stehe ich vor dir
TTITLE10=Du siehst die Wunden
TTITLE11=Der Herr behüte dich
EXTD=
EXTT0=
EXTT1=
EXTT2=
EXTT3=
EXTT4=
EXTT5=
EXTT6=
EXTT7=
EXTT8=
EXTT9=
EXTT10=
EXTT11=
PLAYORDER=
